<?xml version="1.0" standalone="no"?>
<!DOCTYPE svg PUBLIC "-//W3C//DTD SVG 20010904//EN"
 "http://www.w3.org/TR/2001/REC-SVG-20010904/DTD/svg10.dtd">
<svg version="1.0" xmlns="http://www.w3.org/2000/svg"
 width="209.000000pt" height="209.000000pt" viewBox="0 0 209.000000 209.000000"
 preserveAspectRatio="xMidYMid meet">
<metadata>
Created by potrace 1.11, written by Peter Selinger 2001-2013
</metadata>
<g transform="translate(0.000000,209.000000) scale(0.100000,-0.100000)"
fill="#000000" stroke="none">
<path d="M730 2062 c-183 -61 -305 -136 -437 -268 -134 -134 -226 -288 -272
-455 -18 -65 -21 -103 -21 -286 0 -174 3 -223 19 -284 53 -205 187 -406 369
-550 92 -74 177 -122 300 -167 l97 -37 260 0 260 0 90 34 c287 107 499 300
620 565 68 150 74 186 74 436 0 208 -2 231 -23 300 -105 337 -355 593 -696
711 -59 21 -86 23 -310 26 l-245 3 -85 -28z"/>
</g>
</svg>
